HIERARCHY
ROOT Hips
{
	OFFSET 0.000000 88.474243 0.000000
	CHANNELS 6 Xposition Yposition Zposition Zrotation Yrotation Xrotation 
	JOINT Hips_Spine
	{
		OFFSET 0.000000 0.000000 0.000000
		CHANNELS 3 Zrotation Yrotation Xrotation
		JOINT Spine
		{
			OFFSET 0.005100 8.711998 -0.691000
			CHANNELS 3 Zrotation Yrotation Xrotation
			JOINT Spine1
			{
				OFFSET -0.009200 8.660301 -1.275000
				CHANNELS 3 Zrotation Yrotation Xrotation
				JOINT Spine2
				{
					OFFSET 0.006300 9.852501 -1.857000
					CHANNELS 3 Zrotation Yrotation Xrotation
					JOINT Spine2_Neck
					{
						OFFSET 0.000000 0.000000 0.000000
						CHANNELS 3 Zrotation Yrotation Xrotation
						JOINT Neck
						{
							OFFSET 0.016300 11.420799 -0.263300
							CHANNELS 3 Zrotation Yrotation Xrotation
							End Site #name: Head
							{
								OFFSET -0.019200 9.262405 2.362500
							}
						}
					}
					JOINT Spine2_LeftShoulder
					{
						OFFSET 0.000000 0.000000 0.000000
						CHANNELS 3 Zrotation Yrotation Xrotation
						JOINT LeftShoulder
						{
							OFFSET 5.616900 6.732201 -0.345700
							CHANNELS 3 Zrotation Yrotation Xrotation
							JOINT LeftArm
							{
								OFFSET 10.664888 -0.183372 -2.440700
								CHANNELS 3 Zrotation Yrotation Xrotation
								JOINT LeftForeArm
								{
									OFFSET 27.459126 0.000000 0.000000
									CHANNELS 3 Zrotation Yrotation Xrotation
									End Site #name: LeftHand
									{
										OFFSET 21.306858 0.000000 0.000000
									}
								}
							}
						}
					}
					JOINT Spine2_RightShoulder
					{
						OFFSET 0.000000 0.000000 0.000000
						CHANNELS 3 Zrotation Yrotation Xrotation
						JOINT RightShoulder
						{
							OFFSET -5.580300 6.737503 -0.344400
							CHANNELS 3 Zrotation Yrotation Xrotation
							JOINT RightArm
							{
								OFFSET -10.679335 -0.188484 -2.383900
								CHANNELS 3 Zrotation Yrotation Xrotation
								JOINT RightForeArm
								{
									OFFSET -27.503529 0.000000 0.000000
									CHANNELS 3 Zrotation Yrotation Xrotation
									End Site #name: RightHand
									{
										OFFSET -21.306808 0.000000 0.000000
									}
								}
							}
						}
					}
				}
			}
		}
	}
	JOINT Hips_LeftUpLeg
	{
		OFFSET 0.000000 0.000000 0.000000
		CHANNELS 3 Zrotation Yrotation Xrotation
		JOINT LeftUpLeg
		{
			OFFSET 6.857700 -6.739601 0.312100
			CHANNELS 3 Zrotation Yrotation Xrotation
			JOINT LeftLeg
			{
				OFFSET -0.367590 -34.731552 -4.572400
				CHANNELS 3 Zrotation Yrotation Xrotation
				End Site #name: LeftFoot
				{
					OFFSET 0.367590 -34.656704 -6.067400
				}
			}
		}
	}
	JOINT Hips_RightUpLeg
	{
		OFFSET 0.000000 0.000000 0.000000
		CHANNELS 3 Zrotation Yrotation Xrotation
		JOINT RightUpLeg
		{
			OFFSET -6.876100 -6.733299 0.301000
			CHANNELS 3 Zrotation Yrotation Xrotation
			JOINT RightLeg
			{
				OFFSET 0.347353 -34.795158 -4.515900
				CHANNELS 3 Zrotation Yrotation Xrotation
				End Site #name: RightFoot
				{
					OFFSET -0.347353 -34.589367 -6.070300
				}
			}
		}
	}
}
MOTION
Frames: 17
Frame Time: 0.041667
0.153359 -0.003144 0.025243 0.275348 7.892372 -6.149619 0.000000 -0.000000 0.000000 0.208124 -2.619291 3.535845 0.546335 -0.605264 1.574853 0.000000 0.000000 0.000000 0.821726 -0.874230 0.203919 1.057993 -0.553040 -0.927041 1.097795 -0.996440 0.851982 -12.779113 -0.394989 0.720367 -53.267228 -2.712261 25.693022 0.264701 -29.226036 0.688879 0.643303 -0.671992 1.333483 17.777329 11.758358 4.170434 51.529653 9.008995 -8.154092 179.490031 58.013554 179.692914 0.000000 0.000000 0.000000 -2.708818 9.936525 -11.928287 3.550938 7.644125 21.123643 0.000000 0.000000 0.000000 -0.716679 -12.390963 -5.007894 1.685549 9.811412 11.024645 
0.387360 -0.031851 -0.051393 1.182992 9.186906 -6.737378 0.000000 -0.000000 0.000000 -0.476221 -1.712255 1.730327 0.692568 -0.478361 1.576999 0.000000 0.000000 0.000000 0.461548 -0.397625 0.516525 1.512236 -0.495065 -1.843077 0.871144 -0.561822 0.776315 -13.580902 -0.601915 0.732206 -53.560920 -4.299375 24.212354 -0.274615 -29.366087 0.760676 0.569541 -0.538366 0.853670 18.117677 10.831690 3.590909 51.029281 22.639726 -4.081518 179.416135 45.084697 -179.740043 0.000000 0.000000 -0.000000 -4.411027 10.256999 -10.585631 2.764645 7.435537 20.148065 0.000000 -0.000000 0.000000 -3.905022 -14.784699 -4.881405 2.231423 9.892463 13.510918 
0.562156 -0.051355 -0.095489 1.619548 9.400512 -7.002855 0.000000 -0.000000 0.000000 -0.123440 -0.619492 0.770147 0.632074 -0.148534 1.501467 0.000000 0.000000 0.000000 0.359709 -0.350578 0.541456 2.201645 0.333687 -2.701078 0.419005 -0.273533 0.927095 -16.266047 2.089216 0.382894 -55.748506 0.679705 14.878486 -0.240271 -26.174942 0.742035 0.161350 -0.212614 0.880631 19.715194 10.985362 3.873777 47.634250 26.912266 -6.271623 179.456953 42.205591 -179.627633 0.000000 0.000000 -0.000000 -4.937968 10.050312 -10.690149 3.102485 8.144196 20.935642 0.000000 -0.000000 0.000000 -5.472288 -15.201015 -4.912919 2.994329 9.284874 15.503490 
0.759927 -0.071477 -0.142578 1.630919 9.140801 -7.229431 0.000000 -0.000000 -0.000000 -0.648328 -0.264316 0.947489 0.459024 -0.077977 1.672738 0.000000 0.000000 0.000000 0.179730 -0.354746 0.804503 2.245233 0.447190 -2.765724 0.292840 -0.190058 0.887642 -17.354006 3.077501 -0.038768 -56.773675 3.211151 15.139354 -0.258166 -22.934480 0.714587 -0.035059 -0.171107 1.054020 20.571515 10.775268 4.017146 44.693001 31.572125 -8.123937 179.486692 41.982793 -179.636404 0.000000 0.000000 -0.000000 -5.054119 10.208051 -10.733863 3.404898 8.573784 21.437951 0.000000 -0.000000 0.000000 -6.219512 -15.280575 -5.247727 3.407717 8.656498 17.421684 
0.977026 -0.087325 -0.187273 1.469886 9.004195 -7.385323 0.000000 -0.000000 0.000000 -1.129801 -0.060369 1.122535 0.124722 -0.032394 1.842043 0.000000 0.000000 0.000000 -0.132788 -0.401107 0.969177 2.214784 0.377388 -2.501092 0.099967 -0.264577 0.889948 -18.039278 3.579317 -0.219445 -56.516955 2.916713 14.440194 -0.286867 -20.951015 0.689649 -0.332343 -0.124717 1.237029 21.183187 10.486347 4.021399 42.930433 34.308589 -9.845343 179.586286 40.655650 -179.655682 0.000000 0.000000 -0.000000 -4.987849 10.260507 -10.727353 3.550209 8.711001 21.787134 0.000000 -0.000000 0.000000 -6.526170 -15.315930 -5.470241 3.560132 8.186767 18.599691 
1.196958 -0.100537 -0.232372 1.250757 8.956362 -7.500821 0.000000 -0.000000 0.000000 -1.467675 -0.041106 1.293641 -0.264828 -0.046863 2.004858 0.000000 0.000000 0.000000 -0.478407 -0.458310 1.099712 2.180312 0.318807 -2.051440 -0.111079 -0.347391 1.077357 -18.479612 3.961436 -0.291748 -56.212304 2.333327 14.855364 -0.302577 -19.901017 0.720587 -0.669334 -0.078982 1.396649 21.423767 10.282200 3.995236 41.868946 35.681589 -11.280246 179.644450 39.943947 -179.685963 0.000000 0.000000 -0.000000 -4.885605 10.292128 -10.746954 3.614142 8.688986 22.043460 0.000000 -0.000000 0.000000 -6.558265 -15.269724 -5.604712 3.622580 8.028353 19.222015 
1.404732 -0.109474 -0.278200 1.001068 8.889318 -7.572958 0.000000 0.000000 0.000000 -1.597846 -0.058720 1.461719 -0.504909 -0.081087 2.141051 0.000000 0.000000 0.000000 -0.683511 -0.495348 1.165812 2.156438 0.274375 -1.684133 -0.269293 -0.356237 1.312156 -18.808272 4.188174 -0.324495 -55.921050 2.063401 15.537522 -0.317064 -19.204324 0.751207 -0.917690 -0.068188 1.538433 21.510509 10.191013 3.961895 41.434475 36.146792 -11.999073 179.690810 39.714598 -179.705791 0.000000 0.000000 -0.000000 -4.743132 10.377729 -10.823455 3.629941 8.602958 22.239486 0.000000 -0.000000 0.000000 -6.438211 -15.166214 -5.752911 3.651080 7.928983 19.674897 
1.585052 -0.112500 -0.323253 0.723084 8.757285 -7.618067 0.000000 0.000000 0.000000 -1.619215 -0.058465 1.476075 -0.582728 -0.098711 2.210606 0.000000 0.000000 0.000000 -0.782609 -0.521261 1.241366 2.149515 0.267350 -1.459690 -0.342519 -0.348879 1.467212 -19.064535 4.243265 -0.323999 -55.680712 2.103151 15.955476 -0.329604 -18.605566 0.751513 -1.062325 -0.064408 1.614197 21.493504 10.131930 3.923848 41.363372 36.232059 -12.270418 179.717679 39.708468 -179.712954 0.000000 0.000000 -0.000000 -4.569505 10.473972 -10.914712 3.674705 8.533810 22.349478 0.000000 0.000000 0.000000 -6.244347 -15.046363 -5.948213 3.667620 7.849783 20.058129 
1.722315 -0.110539 -0.366285 0.446099 8.553865 -7.630728 0.000000 0.000000 0.000000 -1.580882 -0.044533 1.436043 -0.556707 -0.103368 2.237749 0.000000 0.000000 0.000000 -0.805582 -0.533914 1.304454 2.106404 0.257232 -1.338818 -0.350036 -0.343480 1.555282 -19.285787 4.260470 -0.287654 -55.590006 2.215148 16.053765 -0.339353 -17.969465 0.741017 -1.094106 -0.064157 1.655369 21.439807 10.108992 3.902388 41.417770 36.098363 -12.275292 179.727514 39.849611 -179.712670 0.000000 0.000000 -0.000000 -4.387004 10.574406 -11.023623 3.723418 8.464431 22.441085 0.000000 0.000000 0.000000 -6.037015 -14.936022 -6.181306 3.671953 7.778210 20.404117 
1.816149 -0.105564 -0.408144 0.215823 8.350014 -7.627654 0.000000 0.000000 -0.000000 -1.522524 -0.029618 1.395815 -0.493544 -0.099258 2.239667 0.000000 0.000000 0.000000 -0.789696 -0.538524 1.356184 2.048663 0.252504 -1.263101 -0.325788 -0.341624 1.595132 -19.475165 4.209385 -0.243064 -55.514549 2.351859 15.952894 -0.352673 -17.480712 0.736595 -1.072985 -0.065193 1.681811 21.379058 10.088720 3.881562 41.488435 35.944937 -12.192424 179.732532 39.968368 -179.711092 0.000000 0.000000 -0.000000 -4.211861 10.662013 -11.140563 3.771531 8.402823 22.548924 0.000000 0.000000 0.000000 -5.857129 -14.865091 -6.438192 3.676360 7.731369 20.755266 
1.865780 -0.098942 -0.450194 0.037797 8.197710 -7.613726 0.000000 0.000000 -0.000000 -1.455727 -0.025283 1.362830 -0.431028 -0.100334 2.242894 0.000000 0.000000 0.000000 -0.755575 -0.542163 1.396771 1.984195 0.249637 -1.196346 -0.293768 -0.354989 1.617800 -19.570997 4.173961 -0.214611 -55.529820 2.419514 15.813435 -0.362018 -17.233474 0.732275 -1.032919 -0.075158 1.709191 21.336109 10.061038 3.863554 41.536927 35.817373 -12.068853 179.735358 40.124669 -179.707356 0.000000 0.000000 -0.000000 -4.070797 10.721565 -11.254411 3.821649 8.353961 22.645895 0.000000 0.000000 0.000000 -5.715958 -14.821219 -6.691953 3.702611 7.762624 21.122517 
1.870376 -0.091774 -0.493465 -0.093222 8.125525 -7.605933 0.000000 0.000000 -0.000000 -1.378879 -0.039772 1.346198 -0.378221 -0.113037 2.248725 0.000000 0.000000 0.000000 -0.713567 -0.549375 1.428063 1.913502 0.248190 -1.103561 -0.261849 -0.384654 1.640680 -19.592642 4.117882 -0.185776 -55.631672 2.431780 15.759778 -0.364182 -17.191013 0.729985 -0.984169 -0.099923 1.737332 21.305529 10.052273 3.858167 41.554157 35.721664 -11.943859 179.736040 40.265459 -179.704383 0.000000 0.000000 -0.000000 -3.959678 10.757270 -11.357586 3.878662 8.310951 22.735724 0.000000 0.000000 0.000000 -5.611487 -14.826577 -6.912531 3.764258 7.891748 21.472064 
1.829037 -0.084912 -0.538759 -0.184294 8.138685 -7.605146 0.000000 0.000000 -0.000000 -1.282538 -0.071221 1.335756 -0.328955 -0.136603 2.257794 0.000000 0.000000 0.000000 -0.668863 -0.565352 1.448575 1.850834 0.248287 -0.986183 -0.226977 -0.428308 1.666992 -19.554641 4.023560 -0.154851 -55.751364 2.401121 15.778990 -0.365273 -17.234400 0.731871 -0.928843 -0.139186 1.762868 21.282914 10.051611 3.859871 41.555407 35.633598 -11.799965 179.733890 40.409157 -179.704087 0.000000 0.000000 -0.000000 -3.867843 10.780536 -11.442402 3.939802 8.268538 22.797442 0.000000 0.000000 0.000000 -5.526851 -14.863807 -7.071880 3.849346 8.089330 21.761025 
1.745629 -0.078505 -0.587059 -0.248383 8.216348 -7.606335 0.000000 0.000000 -0.000000 -1.160328 -0.114696 1.309963 -0.273396 -0.167082 2.264424 0.000000 0.000000 0.000000 -0.613841 -0.586375 1.462368 1.798783 0.249707 -0.844109 -0.187098 -0.481173 1.691594 -19.481102 3.898491 -0.116879 -55.883201 2.365470 15.884250 -0.365460 -17.327001 0.737500 -0.863330 -0.188659 1.787265 21.261495 10.041683 3.857174 41.533307 35.549379 -11.675706 179.729323 40.481787 -179.703625 0.000000 0.000000 -0.000000 -3.775538 10.788016 -11.521879 4.004016 8.233706 22.852884 0.000000 0.000000 0.000000 -5.437501 -14.930054 -7.174804 3.944398 8.318104 21.962125 
1.623957 -0.072675 -0.639546 -0.292404 8.334397 -7.605815 0.000000 0.000000 -0.000000 -1.009677 -0.172742 1.279396 -0.203214 -0.201768 2.265290 0.000000 0.000000 0.000000 -0.541588 -0.608959 1.472306 1.764020 0.254369 -0.691171 -0.136188 -0.541418 1.714629 -19.386049 3.739605 -0.070520 -56.000923 2.344082 16.001778 -0.366804 -17.427116 0.746409 -0.783796 -0.244567 1.809116 21.234627 10.019951 3.849346 41.489416 35.474960 -11.590368 179.720548 40.468897 -179.704419 0.000000 0.000000 -0.000000 -3.667841 10.785081 -11.602023 4.072239 8.222860 22.906473 0.000000 0.000000 0.000000 -5.337177 -15.009680 -7.218986 4.041799 8.552299 22.049604 
1.467963 -0.067410 -0.697383 -0.323739 8.462208 -7.599543 0.000000 0.000000 -0.000000 -0.840061 -0.238719 1.247433 -0.115077 -0.239411 2.263516 0.000000 0.000000 0.000000 -0.448846 -0.628543 1.483802 1.740926 0.241117 -0.525807 -0.074266 -0.594089 1.730662 -19.279839 3.566305 -0.019733 -56.121335 2.351552 16.145742 -0.368789 -17.528747 0.756645 -0.684607 -0.306193 1.830999 21.201967 9.999970 3.841606 41.447435 35.403713 -11.510330 179.711063 40.418097 -179.704666 0.000000 0.000000 -0.000000 -3.534923 10.771775 -11.679062 4.142677 8.237844 22.947644 0.000000 0.000000 0.000000 -5.213944 -15.091731 -7.202487 4.123043 8.758253 21.982688 
1.281664 -0.062983 -0.761635 -0.344306 8.591710 -7.585355 0.000000 0.000000 -0.000000 -0.661346 -0.311152 1.224489 -0.008338 -0.278308 2.261698 0.000000 0.000000 0.000000 -0.336000 -0.646756 1.496609 1.726390 0.220381 -0.358073 -0.001557 -0.626917 1.735430 -19.168992 3.383204 0.035469 -56.246012 2.391758 16.280092 -0.371467 -17.643634 0.770113 -0.568612 -0.365549 1.849322 21.178643 9.981905 3.836901 41.394292 35.336618 -11.466579 179.700218 40.326321 -179.704871 0.000000 0.000000 -0.000000 -3.377816 10.748790 -11.752848 4.209438 8.264424 22.971462 0.000000 0.000000 0.000000 -5.060929 -15.161463 -7.142481 4.177609 8.928102 21.763623 
